<svg width="173" height="177" viewBox="0 0 173 177" fill="none" xmlns="http://www.w3.org/2000/svg">
<path fill-rule="evenodd" clip-rule="evenodd" d="M80.6611 0.570626C65.9218 1.75524 52.7694 6.04063 40.7424 13.5768C34.999 17.1758 30.4947 20.7811 25.4947 25.7816C11.5319 39.7459 3.27755 56.6502 0.469552 77.0315C-0.156517 81.5756 -0.156517 93.8164 0.469552 98.3604C3.28858 118.821 11.615 135.79 25.733 149.847C39.6822 163.735 57.2541 172.117 77.4744 174.527C81.5507 175.013 92.3486 174.937 96.4722 174.393C98.2923 174.153 100.221 173.881 100.757 173.787L101.733 173.618L97.8155 171.704C95.661 170.651 92.6082 169.081 91.0312 168.214L88.1639 166.637L85.3932 166.637C66.1439 166.631 46.1432 158.331 32.0353 144.495C25.1865 137.779 20.5305 131.413 16.313 122.999C14.0663 118.517 10.849 109.996 11.2512 109.593C11.3172 109.527 12.621 110.217 14.1489 111.125C17.8612 113.332 26.4088 117.707 30.654 119.572C32.5415 120.402 34.2065 121.209 34.3535 121.366C34.5009 121.522 34.9821 122.699 35.4226 123.98C35.8633 125.261 36.8622 127.632 37.6425 129.251C42.5969 139.525 50.4955 146.783 61.3552 151.04C62.6014 151.528 63.7859 151.928 63.9872 151.928C64.3296 151.928 65.1023 150.489 65.0893 149.875C65.0861 149.723 64.0788 149.05 62.8507 148.379C55.6502 144.444 50.2036 138.581 46.4212 130.692C45.2696 128.289 43.9186 124.715 44.1625 124.715C44.2282 124.715 45.573 125.088 47.1507 125.544C50.7622 126.589 51.6129 126.77 51.6129 126.498C51.6129 126.379 51.24 125.35 50.7843 124.211C50.3286 123.073 49.6498 121.203 49.2763 120.057L48.5967 117.973L45.3095 116.887C43.4722 116.28 41.9308 115.629 41.8149 115.413C41.4796 114.786 40.8361 108.906 40.5598 103.944C39.9918 93.7387 41.217 85.5187 44.9918 74.2122C47.0232 68.1273 50.9971 59.2574 51.6916 59.2574C51.8673 59.2574 52.4676 59.4781 53.0258 59.7478C54.2748 60.3513 54.4836 60.357 54.6628 59.7926C54.7989 59.3641 56.9337 55.6708 57.8338 54.3067L58.2697 53.6465L57.0249 53.0157C56.3402 52.6685 55.7801 52.288 55.7801 52.1701C55.7801 51.7489 60.1918 46.0563 62.4629 43.5466C66.915 38.6273 71.187 34.9773 77.1437 31.0035L80.49 28.7711L79.9752 27.711C79.6921 27.1283 79.3612 26.6512 79.2401 26.6512C79.119 26.6512 77.3646 27.4195 75.3412 28.3585C66.4429 32.4877 58.1792 38.554 51.8901 45.5731C50.4622 47.1667 49.1981 48.4704 49.0804 48.4704C48.7571 48.4704 43.0001 44.618 40.1247 42.4772C37.6866 40.6621 32.2155 36.2173 30.1637 34.3848L29.1832 33.5088L32.0022 30.7885C51.4976 11.9762 78.6054 4.53854 104.724 10.8357C112.83 12.7901 120.764 16.1206 127.703 20.4823L130.098 21.988L131.621 21.6053C132.459 21.3947 134.923 20.9257 137.097 20.5627L141.05 19.9029L138.065 17.6536C126.16 8.68223 112.347 3.12764 96.7173 1.02564C94.0027 0.660599 83.3115 0.357582 80.6611 0.570626ZM151.308 31.6235C151.078 32.3566 150.554 33.4183 150.145 33.9832C149.346 35.0859 147.412 36.4576 146.656 36.4576C146.206 36.4576 146.206 36.4738 146.643 37.034C150.373 41.8185 154.44 47.8391 154.201 48.2243C154.005 48.5418 145.428 52.3442 139.983 54.5276C137.152 55.6629 132.769 57.2971 130.243 58.1591C125.83 59.6656 118.328 61.7105 117.226 61.7078C116.75 61.7066 116.599 61.342 115.761 58.1733C115.247 56.2302 114.583 53.8387 114.285 52.8585L113.743 51.0767L112.588 52.164L111.433 53.251L112.193 57.7372C112.611 60.2047 112.889 62.2884 112.81 62.3675C112.459 62.7186 106.63 63.1976 101.007 63.3371L94.8788 63.4894L93.0634 64.8669C90.1725 67.0604 87.0961 69.8371 87.3197 70.0511C87.6386 70.3563 94.0057 70.7804 98.2021 70.776C102.477 70.7714 106.233 70.5054 110.632 69.8952C112.285 69.6659 113.687 69.5282 113.748 69.589C113.94 69.7812 114.593 77.0894 114.852 81.9347C115.397 92.175 115.026 100.537 113.579 110.59L113.053 114.239L111.688 114.845C109.408 115.857 101.959 118.244 98.1881 119.171C91.9985 120.692 86.2313 121.552 79.7419 121.921C78.1576 122.011 76.8616 122.114 76.8616 122.15C76.8616 122.344 78.6165 127.218 79.0508 128.231L79.5595 129.417L81.7037 129.254C91.0668 128.54 101.515 125.888 110.909 121.841C111.182 121.723 111.215 121.883 111.075 122.653C110.8 124.155 108.152 131.943 107.039 134.521C106.486 135.802 106.033 136.966 106.033 137.108C106.033 137.25 106.528 137.606 107.133 137.9L108.233 138.435L108.593 137.886C109.933 135.84 113.792 126.707 115.364 121.86L116.17 119.373L118.55 118.099C125.309 114.481 135.119 107.635 140.55 102.745L141.607 101.793L140.841 100.759L140.076 99.7255L137.946 101.115C131.065 105.605 118.032 112.744 118.048 112.014C118.05 111.921 118.265 110.669 118.526 109.233C120.674 97.4168 120.726 85.2488 118.686 72.081L118.141 68.5662L119.134 68.3129C130.726 65.3568 140.908 60.8066 152.351 53.469L155.895 51.1971L156.478 52.2241C158.049 54.9895 160.461 61.2263 161.801 65.9888C163.878 73.3679 164.685 79.2872 164.709 87.3282C164.728 93.331 164.497 96.2837 163.608 101.425C159.999 122.305 147.958 140.952 130.178 153.194C124.055 157.411 115.819 161.329 108.713 163.408C107.02 163.903 105.586 164.419 105.527 164.554C105.415 164.812 111.998 170.454 112.681 170.684C112.901 170.758 114.114 170.444 115.378 169.986C140.068 161.04 159.528 141.366 168.036 116.747C175.094 96.3251 174.62 75.1578 166.65 54.8446C163.827 47.6496 159.022 39.389 154.107 33.2791C153.08 32.003 152.125 30.8086 151.984 30.6248C151.789 30.3693 151.63 30.6047 151.308 31.6235ZM25.0343 42.249C29.2685 45.5525 37.4327 51.1091 41.9301 53.7477C43.2783 54.5386 44.4121 55.204 44.4493 55.2263C44.4868 55.2483 43.8556 56.3815 43.0464 57.7441C37.9259 66.369 33.9282 77.5525 32.4886 87.2819C31.5926 93.3359 31.4536 102.237 32.14 109.601L32.3194 111.526L30.3836 110.488C23.8513 106.987 17.6691 103.063 11.8685 98.7358L8.77147 96.4256L8.62267 95.1866C8.32851 92.7389 8.46726 82.9408 8.84329 79.6057C10.1788 67.7588 13.9354 56.3452 19.6961 46.6317C21.1904 44.112 23.1997 41.1156 23.3951 41.1156C23.4978 41.1156 24.2357 41.6256 25.0343 42.249Z" fill="#517C06"/>
<path fill-rule="evenodd" clip-rule="evenodd" d="M138.416 23.5571C138.281 23.6022 137.867 23.7059 137.497 23.7875C136.835 23.9337 136.899 24.032 141.138 29.3256C143.511 32.2895 145.509 34.7148 145.577 34.7148C145.645 34.7148 146.348 34.3696 147.14 33.9479C148.004 33.4872 148.515 33.0709 148.419 32.9059C147.467 31.2605 143.381 25.8791 141.938 24.3689C141.137 23.5301 140.927 23.4387 139.854 23.4561C139.198 23.4666 138.55 23.5122 138.416 23.5571ZM142.637 23.7434C142.766 23.9119 144.23 25.8701 145.889 28.095C147.549 30.32 148.942 32.1834 148.986 32.2358C149.03 32.2881 149.192 32.0122 149.345 31.6229C150.36 29.0598 148.511 25.7146 145.291 24.286C143.733 23.5951 142.296 23.3011 142.637 23.7434ZM133.621 24.4047C133.276 24.5093 132.751 24.7251 132.454 24.8842C131.989 25.1328 131.954 25.2488 132.199 25.7085C132.698 26.6407 134.882 28.7963 135.979 29.4391C137.236 30.1761 139.717 30.853 140.769 30.7459L141.521 30.6694L138.936 27.693C136.001 24.3149 135.315 23.8908 133.621 24.4047ZM128.059 26.2768C127.62 26.4685 127.262 26.7137 127.262 26.8218C127.262 26.93 127.594 27.5427 128.001 28.1836C129.005 29.7671 130.079 30.2254 131.904 29.8483C132.637 29.6968 133.339 29.47 133.465 29.344C133.816 28.9936 132.657 27.0947 131.699 26.4497C130.74 25.8031 129.298 25.7347 128.059 26.2768ZM108.386 26.7743C108.386 27.1604 113.381 33.4872 114.177 34.1092C114.7 34.5179 115.873 35.4383 116.784 36.1547L118.441 37.4569L118.924 36.3923C119.469 35.19 119.548 33.8018 119.103 33.2227C118.793 32.8186 112.621 28.4091 111.61 27.8692C110.824 27.449 108.386 26.6213 108.386 26.7743ZM124.198 27.8928C122.615 28.4824 122.54 28.6327 123.265 29.7512C124.008 30.8984 124.736 31.364 125.785 31.364C126.69 31.364 128.488 30.7893 128.488 30.4997C128.488 30.018 127.787 28.6783 127.315 28.2581C126.692 27.7035 125.181 27.5265 124.198 27.8928ZM101.155 30.078C87.7023 33.6713 76.3765 40.2036 66.9164 49.8253C61.8597 54.9683 59.4427 58.0956 57.4443 62.0809C55.7294 65.5009 54.3872 68.7906 53.2304 72.4097C52.2354 75.5222 52.0702 76.3948 52.4752 76.3948C52.599 76.3948 52.8596 76.4558 53.0542 76.5306C53.3062 76.6272 53.5709 76.2565 53.9737 75.2434C54.8859 72.9493 57.3139 68.1929 59.0696 65.2613C69.0265 48.6367 86.4457 36.4242 105.742 32.5398C107.597 32.1662 109.183 31.7933 109.266 31.7107C109.534 31.4422 104.671 29.2538 103.997 29.3393C103.917 29.3496 102.638 29.6821 101.155 30.078ZM119.948 30.093C118.683 30.7189 118.495 31.0828 119.021 31.8862C119.718 32.9498 120.467 33.4892 121.241 33.4835C122.198 33.4767 124.075 32.6328 124.075 32.2094C124.075 31.6374 122.834 30.0383 122.203 29.7985C121.346 29.4727 121.149 29.4984 119.948 30.093ZM108.264 34.2691C94.5683 36.5556 81.9879 42.9402 71.9062 52.7206C66.3332 58.1269 62.1696 63.7251 58.6323 70.5677C53.3373 80.8099 50.9646 90.5881 50.9718 102.138C50.9779 112.072 52.2421 117.928 56.3626 127.11C61.7869 139.196 70.906 150.391 83.1373 159.98C86.5396 162.647 91.558 165.202 97.4778 167.279C99.2288 167.894 106.425 169.828 106.425 169.684C106.425 169.641 105.214 168.544 103.733 167.248C101.176 165.008 100.915 164.846 98.5241 164.021C82.06 158.338 68.6944 146.538 61.0616 130.947C58.0474 124.789 56.2647 119.373 55.2119 113.173C52.838 99.1937 54.9763 85.2609 61.4582 72.472C69.8794 55.8571 85.8331 43.0893 103.606 38.7416C105.7 38.2294 111.245 37.1666 111.824 37.1666C112.048 37.1666 111.689 35.4619 111.263 34.5015L110.96 33.8189L108.264 34.2691ZM113.395 35.8407C113.058 36.9979 113.038 37.4071 113.28 38.2125C113.628 39.3749 114.606 40.3539 115.42 40.3539C116.955 40.3539 117.896 37.8832 116.728 36.9214C116.482 36.7191 115.723 36.0785 115.041 35.4979L113.801 34.4422L113.395 35.8407ZM107.955 39.9837C98.2174 41.8318 89.2282 45.8716 81.1108 52.0473C78.1763 54.2799 72.6019 59.738 70.3947 62.5399C63.5644 71.2103 59.2454 80.7974 57.4152 91.3505C56.0875 99.0077 56.1226 105.935 57.5279 113.552C59.9001 126.41 65.7917 137.552 75.1547 146.888C80.7637 152.481 86.8921 156.706 94.1415 159.977C95.6636 160.664 96.9625 161.226 97.028 161.226C97.0934 161.226 95.7356 159.735 94.0106 157.912C91.6897 155.46 90.4265 154.335 89.1508 153.584C84.1162 150.622 78.9766 146.327 74.7186 141.525C67.0083 132.829 61.9639 121.707 60.3029 109.739C59.8148 106.223 59.894 97.3233 60.4458 93.6797C61.0101 89.9533 62.2417 85.0424 63.4002 81.8992C64.5214 78.8568 67.1142 73.4318 68.6083 71.0009C71.6895 65.9888 76.8513 60.0329 81.4917 56.1366C89.327 49.557 99.2705 44.9563 109.463 43.1947C110.661 42.9876 111.685 42.776 111.736 42.7242C111.788 42.6725 111.899 41.8975 111.982 41.0016C112.164 39.0586 112.449 39.1307 107.955 39.9837ZM106.916 45.885C80.6507 51.9394 62.0556 75.2939 62.0556 102.227C62.0556 114.231 65.8483 125.886 73.0208 135.921C76.0985 140.227 79.2392 143.433 85.4522 148.611L86.9092 149.825L84.816 146.76C83.6649 145.075 82.0502 142.592 81.2277 141.243C80.4053 139.895 79.5167 138.56 79.2529 138.276C76.5574 135.383 73.2779 130.512 71.1553 126.25C67.5773 119.067 65.8248 112.09 65.5569 103.961C64.9124 84.3939 74.3931 66.6613 91.2268 55.9481C94.7813 53.6861 100.667 51.1208 105.077 49.9113C109.254 48.7659 108.904 48.9605 109.914 47.2198C110.422 46.344 110.838 45.544 110.838 45.4423C110.838 45.1272 109.594 45.2674 106.916 45.885ZM102.889 52.8637C97.3619 54.8173 93.7341 56.6995 89.2993 59.9145C85.7708 62.4725 83.7252 64.2855 81.2589 67.0408C74.0153 75.1338 69.7313 84.174 68.1703 94.6604C67.5758 98.6548 67.5322 105.113 68.0732 109.056C68.7473 113.97 70.996 121.752 71.7417 121.752C72.7438 121.752 72.7563 121.608 72.0562 118.13C71.0068 112.917 70.7459 108.481 71.0796 101.521C71.2879 97.1698 71.513 94.9081 71.9444 92.8216C73.9933 82.917 78.3334 74.8038 85.3311 67.7984C89.6604 63.4639 94.2239 60.2659 99.4904 57.8749C100.732 57.3112 102.004 56.6821 102.318 56.4767C103.195 55.9015 107.012 51.6303 106.636 51.6445C106.453 51.6513 104.766 52.2 102.889 52.8637ZM103.322 171.69C103.235 171.935 103.117 172.221 103.06 172.326C102.935 172.557 109.254 175.583 110.535 175.904C111.039 176.031 112.322 176.206 113.386 176.294L115.322 176.454L112.747 174.496C110.94 173.123 109.888 172.492 109.218 172.381C107.549 172.105 104.357 171.496 103.911 171.368C103.641 171.29 103.422 171.41 103.322 171.69Z" fill="#DB0001"/>
</svg>
