<svg width="173" height="176" viewBox="0 0 173 176" fill="none" xmlns="http://www.w3.org/2000/svg">
<path fill-rule="evenodd" clip-rule="evenodd" d="M80.6611 0.0706258C65.9218 1.25524 52.7694 5.54063 40.7424 13.0768C34.999 16.6758 30.4947 20.2811 25.4947 25.2816C11.5319 39.2459 3.27755 56.1502 0.469552 76.5315C-0.156517 81.0756 -0.156517 93.3164 0.469552 97.8604C3.28858 118.321 11.615 135.29 25.733 149.347C39.6822 163.235 57.2541 171.617 77.4744 174.027C81.5507 174.513 92.3486 174.437 96.4722 173.893C98.2923 173.653 100.221 173.381 100.757 173.287L101.733 173.118L97.8155 171.204C95.661 170.151 92.6082 168.581 91.0312 167.714L88.1639 166.137L85.3932 166.137C66.1439 166.131 46.1432 157.831 32.0353 143.995C25.1865 137.279 20.5305 130.913 16.313 122.499C14.0663 118.017 10.849 109.496 11.2512 109.093C11.3172 109.027 12.621 109.717 14.1489 110.625C17.8612 112.832 26.4088 117.207 30.654 119.072C32.5415 119.902 34.2065 120.709 34.3535 120.866C34.5009 121.022 34.9821 122.199 35.4226 123.48C35.8633 124.761 36.8622 127.132 37.6425 128.751C42.5969 139.025 50.4955 146.283 61.3552 150.54C62.6014 151.028 63.7859 151.428 63.9872 151.428C64.3296 151.428 65.1023 149.989 65.0893 149.375C65.0861 149.223 64.0788 148.55 62.8507 147.879C55.6502 143.944 50.2036 138.081 46.4212 130.192C45.2696 127.789 43.9186 124.215 44.1625 124.215C44.2282 124.215 45.573 124.588 47.1507 125.044C50.7622 126.089 51.6129 126.27 51.6129 125.998C51.6129 125.879 51.24 124.85 50.7843 123.711C50.3286 122.573 49.6498 120.703 49.2763 119.557L48.5967 117.473L45.3095 116.387C43.4722 115.78 41.9308 115.129 41.8149 114.913C41.4796 114.286 40.8361 108.406 40.5598 103.444C39.9918 93.2387 41.217 85.0187 44.9918 73.7122C47.0232 67.6273 50.9971 58.7574 51.6916 58.7574C51.8673 58.7574 52.4676 58.9781 53.0258 59.2478C54.2748 59.8513 54.4836 59.857 54.6628 59.2926C54.7989 58.8641 56.9337 55.1708 57.8338 53.8067L58.2697 53.1465L57.0249 52.5157C56.3402 52.1685 55.7801 51.788 55.7801 51.6701C55.7801 51.2489 60.1918 45.5563 62.4629 43.0466C66.915 38.1273 71.187 34.4773 77.1437 30.5035L80.49 28.2711L79.9752 27.211C79.6921 26.6283 79.3612 26.1512 79.2401 26.1512C79.119 26.1512 77.3646 26.9195 75.3412 27.8585C66.4429 31.9877 58.1792 38.054 51.8901 45.0731C50.4622 46.6667 49.1981 47.9704 49.0804 47.9704C48.7571 47.9704 43.0001 44.118 40.1247 41.9772C37.6866 40.1621 32.2155 35.7173 30.1637 33.8848L29.1832 33.0088L32.0022 30.2885C51.4976 11.4762 78.6054 4.03854 104.724 10.3357C112.83 12.2901 120.764 15.6206 127.703 19.9823L130.098 21.488L131.621 21.1053C132.459 20.8947 134.923 20.4257 137.097 20.0627L141.05 19.4029L138.065 17.1536C126.16 8.18223 112.347 2.62764 96.7173 0.525642C94.0027 0.160599 83.3115 -0.142418 80.6611 0.0706258ZM151.308 31.1235C151.078 31.8566 150.554 32.9183 150.145 33.4832C149.346 34.5859 147.412 35.9576 146.656 35.9576C146.206 35.9576 146.206 35.9738 146.643 36.534C150.373 41.3185 154.44 47.3391 154.201 47.7243C154.005 48.0418 145.428 51.8442 139.983 54.0276C137.152 55.1629 132.769 56.7971 130.243 57.6591C125.83 59.1656 118.328 61.2105 117.226 61.2078C116.75 61.2066 116.599 60.842 115.761 57.6733C115.247 55.7302 114.583 53.3387 114.285 52.3585L113.743 50.5767L112.588 51.664L111.433 52.751L112.193 57.2372C112.611 59.7047 112.889 61.7884 112.81 61.8675C112.459 62.2186 106.63 62.6976 101.007 62.8371L94.8788 62.9894L93.0634 64.3669C90.1725 66.5604 87.0961 69.3371 87.3197 69.5511C87.6386 69.8563 94.0057 70.2804 98.2021 70.276C102.477 70.2714 106.233 70.0054 110.632 69.3952C112.285 69.1659 113.687 69.0282 113.748 69.089C113.94 69.2812 114.593 76.5894 114.852 81.4347C115.397 91.675 115.026 100.037 113.579 110.09L113.053 113.739L111.688 114.345C109.408 115.357 101.959 117.744 98.1881 118.671C91.9985 120.192 86.2313 121.052 79.7419 121.421C78.1576 121.511 76.8616 121.614 76.8616 121.65C76.8616 121.844 78.6165 126.718 79.0508 127.731L79.5595 128.917L81.7037 128.754C91.0668 128.04 101.515 125.388 110.909 121.341C111.182 121.223 111.215 121.383 111.075 122.153C110.8 123.655 108.152 131.443 107.039 134.021C106.486 135.302 106.033 136.466 106.033 136.608C106.033 136.75 106.528 137.106 107.133 137.4L108.233 137.935L108.593 137.386C109.933 135.34 113.792 126.207 115.364 121.36L116.17 118.873L118.55 117.599C125.309 113.981 135.119 107.135 140.55 102.245L141.607 101.293L140.841 100.259L140.076 99.2255L137.946 100.615C131.065 105.105 118.032 112.244 118.048 111.514C118.05 111.421 118.265 110.169 118.526 108.733C120.674 96.9168 120.726 84.7488 118.686 71.581L118.141 68.0662L119.134 67.8129C130.726 64.8568 140.908 60.3066 152.351 52.969L155.895 50.6971L156.478 51.7241C158.049 54.4895 160.461 60.7263 161.801 65.4888C163.878 72.8679 164.685 78.7872 164.709 86.8282C164.728 92.831 164.497 95.7837 163.608 100.925C159.999 121.805 147.958 140.452 130.178 152.694C124.055 156.911 115.819 160.829 108.713 162.908C107.02 163.403 105.586 163.919 105.527 164.054C105.415 164.312 111.998 169.954 112.681 170.184C112.901 170.258 114.114 169.944 115.378 169.486C140.068 160.54 159.528 140.866 168.036 116.247C175.094 95.8251 174.62 74.6578 166.65 54.3446C163.827 47.1496 159.022 38.889 154.107 32.7791C153.08 31.503 152.125 30.3086 151.984 30.1248C151.789 29.8693 151.63 30.1047 151.308 31.1235ZM25.0343 41.749C29.2685 45.0525 37.4327 50.6091 41.9301 53.2477C43.2783 54.0386 44.4121 54.704 44.4493 54.7263C44.4868 54.7483 43.8556 55.8815 43.0464 57.2441C37.9259 65.869 33.9282 77.0525 32.4886 86.7819C31.5926 92.8359 31.4536 101.737 32.14 109.101L32.3194 111.026L30.3836 109.988C23.8513 106.487 17.6691 102.563 11.8685 98.2358L8.77147 95.9256L8.62267 94.6866C8.32851 92.2389 8.46726 82.4408 8.84329 79.1057C10.1788 67.2588 13.9354 55.8452 19.6961 46.1317C21.1904 43.612 23.1997 40.6156 23.3951 40.6156C23.4978 40.6156 24.2357 41.1256 25.0343 41.749Z" fill="#517C06"/>
<path fill-rule="evenodd" clip-rule="evenodd" d="M138.416 23.057C138.281 23.1021 137.867 23.2058 137.497 23.2874C136.835 23.4335 136.899 23.5319 141.138 28.8255C143.511 31.7894 145.509 34.2147 145.577 34.2147C145.645 34.2147 146.348 33.8695 147.14 33.4478C148.004 32.9871 148.515 32.5708 148.419 32.4058C147.466 30.7604 143.381 25.379 141.938 23.8687C141.137 23.03 140.927 22.9385 139.854 22.9559C139.198 22.9665 138.55 23.0121 138.416 23.057ZM142.637 23.2433C142.766 23.4117 144.23 25.37 145.889 27.5949C147.549 29.8199 148.942 31.6832 148.986 31.7357C149.029 31.7879 149.191 31.5121 149.345 31.1228C150.36 28.5597 148.511 25.2145 145.291 23.7859C143.733 23.095 142.296 22.801 142.637 23.2433ZM133.621 23.9045C133.276 24.0092 132.751 24.225 132.454 24.3841C131.989 24.6327 131.953 24.7487 132.199 25.2084C132.698 26.1405 134.882 28.2961 135.979 28.939C137.236 29.676 139.717 30.3529 140.769 30.2458L141.521 30.1693L138.935 27.1928C136 23.8148 135.315 23.3906 133.621 23.9045ZM128.059 25.7767C127.62 25.9684 127.262 26.2136 127.262 26.3217C127.262 26.4298 127.594 27.0425 128.001 27.6834C129.005 29.267 130.079 29.7253 131.904 29.3482C132.637 29.1967 133.339 28.9699 133.465 28.8439C133.816 28.4935 132.657 26.5946 131.699 25.9495C130.74 25.303 129.298 25.2346 128.059 25.7767ZM108.386 26.2742C108.386 26.6603 113.381 32.9871 114.177 33.6091C114.7 34.0178 115.873 34.9382 116.784 35.6546L118.441 36.9567L118.924 35.8922C119.469 34.6898 119.548 33.3016 119.103 32.7225C118.793 32.3185 112.621 27.909 111.61 27.3691C110.823 26.9489 108.386 26.1212 108.386 26.2742ZM124.198 27.3927C122.615 27.9823 122.54 28.1326 123.265 29.2511C124.008 30.3983 124.736 30.8639 125.785 30.8639C126.69 30.8639 128.488 30.2892 128.488 29.9996C128.488 29.5178 127.787 28.1782 127.315 27.758C126.692 27.2034 125.181 27.0264 124.198 27.3927ZM101.155 29.5779C87.7022 33.1712 76.3764 39.7034 66.9164 49.3251C61.8597 54.4682 59.4426 57.5954 57.4443 61.5808C55.7293 65.0008 54.3872 68.2905 53.2304 71.9096C52.2354 75.0221 52.0702 75.8947 52.4751 75.8947C52.5989 75.8947 52.8595 75.9557 53.0541 76.0305C53.3061 76.1271 53.5709 75.7564 53.9736 74.7433C54.8858 72.4492 57.3139 67.6928 59.0695 64.7612C69.0265 48.1365 86.4456 35.9241 105.742 32.0397C107.597 31.6661 109.183 31.2932 109.266 31.2105C109.534 30.9421 104.671 28.7536 103.997 28.8392C103.917 28.8495 102.638 29.182 101.155 29.5779ZM119.947 29.5929C118.683 30.2188 118.495 30.5826 119.021 31.3861C119.718 32.4497 120.467 32.989 121.241 32.9834C122.198 32.9765 124.075 32.1326 124.075 31.7092C124.075 31.1372 122.833 29.5382 122.203 29.2984C121.346 28.9726 121.149 28.9983 119.947 29.5929ZM108.264 33.769C94.5682 36.0555 81.9878 42.4401 71.9061 52.2204C66.3332 57.6268 62.1695 63.2249 58.6322 70.0676C53.3373 80.3098 50.9646 90.0879 50.9717 101.638C50.9778 111.572 52.242 117.428 56.3625 126.61C61.7869 138.696 70.9059 149.891 83.1373 159.48C86.5395 162.147 91.558 164.701 97.4778 166.779C99.2288 167.394 106.425 169.328 106.425 169.184C106.425 169.141 105.214 168.044 103.733 166.747C101.176 164.508 100.915 164.346 98.524 163.521C82.0599 157.838 68.6943 146.038 61.0615 130.446C58.0473 124.289 56.2647 118.873 55.2118 112.673C52.8379 98.6936 54.9762 84.7607 61.4581 71.9718C69.8793 55.357 85.833 42.5892 103.606 38.2415C105.7 37.7293 111.245 36.6664 111.824 36.6664C112.048 36.6664 111.689 34.9617 111.263 34.0014L110.96 33.3188L108.264 33.769ZM113.394 35.3405C113.058 36.4978 113.038 36.907 113.279 37.7124C113.628 38.8748 114.606 39.8537 115.42 39.8537C116.955 39.8537 117.896 37.3831 116.728 36.4213C116.482 36.219 115.723 35.5784 115.041 34.9978L113.801 33.942L113.394 35.3405ZM107.955 39.4835C98.2173 41.3317 89.2282 45.3714 81.1107 51.5472C78.1762 53.7798 72.6018 59.2379 70.3946 62.0398C63.5644 70.7102 59.2453 80.2973 57.4151 90.8504C56.0874 98.5075 56.1225 105.435 57.5279 113.052C59.9001 125.91 65.7917 137.052 75.1547 146.388C80.7636 151.981 86.892 156.205 94.1414 159.477C95.6635 160.164 96.9625 160.726 97.0279 160.726C97.0934 160.726 95.7356 159.235 94.0105 157.412C91.6896 154.959 90.4264 153.835 89.1507 153.084C84.1161 150.122 78.9766 145.827 74.7186 141.025C67.0083 132.329 61.9639 121.206 60.3028 109.239C59.8147 105.723 59.8939 96.8232 60.4457 93.1796C61.01 89.4532 62.2416 84.5423 63.4001 81.3991C64.5214 78.3567 67.1142 72.9317 68.6083 70.5008C71.6894 65.4886 76.8512 59.5328 81.4917 55.6365C89.327 49.0569 99.2704 44.4562 109.463 42.6946C110.661 42.4874 111.685 42.2758 111.736 42.2241C111.788 42.1724 111.899 41.3974 111.982 40.5015C112.164 38.5585 112.449 38.6306 107.955 39.4835ZM106.916 45.3849C80.6506 51.4393 62.0555 74.7938 62.0555 101.727C62.0555 113.731 65.8483 125.385 73.0207 135.421C76.0984 139.727 79.2391 142.933 85.4521 148.111L86.9092 149.325L84.816 146.26C83.6648 144.575 82.0501 142.092 81.2277 140.743C80.4052 139.395 79.5166 138.059 79.2528 137.776C76.5573 134.882 73.2779 130.012 71.1553 125.75C67.5772 118.567 65.8248 111.589 65.5568 103.461C64.9124 83.8938 74.393 66.1612 91.2268 55.4479C94.7813 53.1859 100.667 50.6207 105.077 49.4112C109.254 48.2657 108.904 48.4604 109.914 46.7197C110.422 45.8439 110.838 45.0439 110.838 44.9421C110.838 44.6271 109.594 44.7673 106.916 45.3849ZM102.889 52.3636C97.3618 54.3172 93.734 56.1994 89.2993 59.4144C85.7708 61.9723 83.7251 63.7854 81.2588 66.5407C74.0153 74.6337 69.7313 83.6739 68.1702 94.1603C67.5758 98.1547 67.5321 104.612 68.0732 108.556C68.7473 113.469 70.9959 121.252 71.7416 121.252C72.7437 121.252 72.7562 121.108 72.0561 117.63C71.0067 112.417 70.7459 107.981 71.0795 101.021C71.2879 96.6697 71.5129 94.4079 71.9443 92.3215C73.9932 82.4169 78.3333 74.3037 85.331 67.2983C89.6604 62.9638 94.2238 59.7657 99.4903 57.3748C100.732 56.8111 102.004 56.182 102.317 55.9765C103.195 55.4014 107.012 51.1301 106.636 51.1444C106.452 51.1512 104.766 51.6999 102.889 52.3636ZM103.322 171.19C103.235 171.435 103.117 171.721 103.06 171.826C102.934 172.057 109.254 175.082 110.534 175.404C111.038 175.53 112.321 175.706 113.386 175.794L115.322 175.954L112.747 173.996C110.94 172.623 109.888 171.992 109.218 171.881C107.549 171.605 104.357 170.995 103.911 170.867C103.641 170.79 103.422 170.91 103.322 171.19Z" fill="#DB0001"/>
</svg>
