<svg width="1172" height="495" viewBox="0 0 1172 495" fill="none" xmlns="http://www.w3.org/2000/svg">
<path opacity="0.83" d="M0 390.395L1054.37 379.884C1048.4 297.301 979.324 232.098 894.91 232.098C873.719 232.098 853.581 236.297 835.083 243.762C798.203 172.26 723.507 123.27 637.337 123.27C541.333 123.27 459.729 184.041 428.586 268.957C415.473 265.341 401.775 263.241 387.609 263.241C369.813 263.241 352.836 266.391 336.914 271.99C311.508 177.392 225.221 107.64 122.192 107.64C108.845 107.64 95.9659 109.04 83.3214 111.256C64.3547 54.6842 53.1537 25.8947 0 0V371.375V390.395Z" fill="white"/>
<path opacity="0.83" d="M946.333 495C940.362 412.417 871.286 347.214 786.872 347.214C765.681 347.214 745.543 351.413 727.045 358.878C690.165 287.376 615.469 238.386 529.299 238.386C433.295 238.386 351.691 299.157 320.548 384.073C307.435 380.457 293.737 378.357 279.57 378.357C261.775 378.357 244.798 381.507 228.876 387.105C203.47 292.508 117.183 222.756 14.1536 222.756C0.806599 222.756 12.6445 220.54 0 222.756V494.883V495H946.333Z" fill="white"/>
<path fill-rule="evenodd" clip-rule="evenodd" d="M1079.59 311.436C1079.15 309.3 1075.24 306.951 1073.65 306.075C1069.51 314.254 1068.3 323.674 1068.12 330.966C1074.82 328.319 1080.4 325.69 1085.76 323.163C1094.79 318.907 1103.21 314.939 1115.36 311.664C1116.82 305.217 1119.41 300.731 1121.57 297.902L1120.98 298.21V297.145C1120.98 297.145 1119.92 297.257 1118.68 298.546C1117.45 299.835 1113.53 303.534 1113.53 303.534C1113.53 303.534 1113.7 301.909 1114.43 299.275C1115.16 296.641 1119.41 294.679 1119.41 294.679L1115.49 294.343L1115.16 293.11L1114.37 294.343L1113.92 295.072L1109.67 297.201C1109.67 297.201 1110 294.175 1111.07 292.942C1112.13 291.709 1115.49 290.476 1117.45 290.644C1119.41 290.813 1120.98 292.606 1120.98 292.606C1120.98 292.606 1120.25 290.476 1121.32 286.385C1122.38 282.294 1124.68 278.764 1124.68 278.764C1124.68 278.764 1125.74 283.695 1125.91 286.553C1126.08 289.411 1124.51 292.606 1124.51 292.606C1124.51 292.606 1128.37 289.243 1131.4 289.748C1134.42 290.308 1137.78 293.166 1137.61 293.671C1135.65 292.606 1132.12 294.007 1132.12 294.007L1131.96 291.877L1131.45 294.511C1129.32 294.007 1125.96 295.576 1125.96 295.576C1132.52 297.201 1130.89 305.495 1130.56 305.159C1130.39 304.43 1127.2 301.796 1127.2 301.796L1127.92 299.163C1127.92 299.163 1126.36 301.46 1126.36 300.956C1126.04 299.707 1123.74 298.316 1122.82 297.8C1120.72 301.936 1119.9 306.618 1119.64 310.577C1129.83 308.146 1142.6 306.165 1160.02 304.825C1163.52 304.54 1166.9 304.296 1170.19 304.059C1170.8 304.015 1171.4 303.971 1172 303.928V451.698L539.69 455.961L512.138 451.698L557.971 436.521C557.971 436.521 633.577 408.5 683.98 400.094C718.255 394.378 736.991 392.549 751.637 391.964C751.172 387.417 750.078 382.342 747.76 377.782C746.571 378.439 743.699 380.173 743.345 381.768C743.345 382.44 741.329 379.526 741.329 379.526L742.225 382.888C742.225 382.888 738.193 386.251 737.969 387.148C737.521 387.596 735.504 377.004 743.793 374.987C743.793 374.987 739.537 372.969 736.793 373.642L736.121 370.279L735.896 372.969C735.896 372.969 731.416 371.176 728.896 372.521C728.672 371.848 732.928 368.262 736.793 367.589C740.601 366.917 745.585 371.176 745.585 371.176C745.585 371.176 743.569 367.141 743.793 363.498C744.017 359.912 745.361 353.579 745.361 353.579C745.361 353.579 748.273 358.062 749.617 363.274C750.961 368.43 750.065 371.176 750.065 371.176C750.065 371.176 752.082 368.934 754.546 368.71C757.01 368.486 761.322 370.055 762.666 371.624C764.01 373.193 764.459 377.004 764.459 377.004L759.082 374.314L758.466 373.362L757.458 371.792L757.01 373.362L752.082 373.81C752.082 373.81 757.458 376.276 758.41 379.694C759.306 383.057 759.53 385.074 759.53 385.074C759.53 385.074 754.602 380.367 752.978 378.741C751.354 377.116 750.065 376.948 750.065 376.948V378.293L749.392 377.956C751.713 381.002 754.412 385.543 756.301 391.813C761.321 391.688 765.969 391.688 770.787 391.688C777.864 391.688 787.131 387.67 798.061 382.932C813.04 376.437 831.142 368.589 851.011 367.872C850.399 364.331 849.354 360.642 847.628 357.239C846.414 357.914 843.606 359.626 843.256 361.201C843.256 361.874 841.24 358.959 841.24 358.959L842.136 362.322C842.136 362.322 838.104 365.684 837.88 366.581C837.432 367.029 835.416 356.438 843.704 354.42C843.704 354.42 839.448 352.403 836.704 353.075L836.032 349.713L835.808 352.403C835.808 352.403 831.327 350.609 828.807 351.954C828.583 351.282 832.839 347.695 836.704 347.023C840.512 346.35 845.496 350.609 845.496 350.609C845.496 350.609 843.48 346.574 843.704 342.932C843.928 339.345 845.272 333.012 845.272 333.012C845.272 333.012 848.185 337.496 849.529 342.708C850.873 347.863 849.977 350.609 849.977 350.609C849.977 350.609 851.993 348.368 854.457 348.144C856.921 347.919 861.233 349.488 862.578 351.058C863.922 352.627 864.37 356.438 864.37 356.438L858.993 353.748L858.377 352.795L857.369 351.226L856.921 352.795L851.993 353.243C851.993 353.243 857.369 355.709 858.321 359.071C859.217 362.434 859.441 364.452 859.441 364.452C859.441 364.452 854.513 359.744 852.889 358.119C851.265 356.494 849.977 356.325 849.977 356.325V357.67L849.143 357.253C851.043 359.723 853.213 363.204 854.988 367.826C859.51 367.886 864.117 368.336 868.794 369.272C877.4 370.994 884.831 372.246 891.52 373.124C891.26 369.176 890.439 364.516 888.347 360.399C887.422 360.915 885.123 362.306 884.811 363.555C884.811 364.059 883.242 361.762 883.242 361.762L883.971 364.396C883.971 364.396 880.778 367.03 880.61 367.758C880.274 368.094 878.65 359.8 885.203 358.175C885.203 358.175 881.842 356.606 879.714 357.11L879.21 354.476L879.042 356.606C879.042 356.606 875.514 355.205 873.554 356.27C873.386 355.765 876.746 352.907 879.77 352.347C882.794 351.842 886.659 355.205 886.659 355.205C886.659 355.205 885.091 352.011 885.259 349.152C885.427 346.294 886.491 341.363 886.491 341.363C886.491 341.363 888.787 344.893 889.851 348.984C890.915 353.075 890.187 355.205 890.187 355.205C890.187 355.205 891.755 353.412 893.715 353.243C895.675 353.075 899.036 354.308 900.1 355.541C901.164 356.774 901.5 359.8 901.5 359.8L897.243 357.671L896.795 356.942L896.011 355.709L895.675 356.942L891.755 357.278C891.755 357.278 896.011 359.24 896.739 361.874C897.467 364.508 897.636 366.133 897.636 366.133C897.636 366.133 893.715 362.434 892.483 361.145C891.251 359.856 890.187 359.744 890.187 359.744V360.809L889.596 360.502C891.686 363.237 894.177 367.521 895.657 373.63C915.348 375.86 928.871 374.735 948.883 373.071C952.721 372.752 956.797 372.413 961.2 372.074C977.856 370.792 981.615 367.163 986.693 362.262C990.203 358.875 994.342 354.879 1003.81 350.63C1006.29 342.957 1009.66 337.321 1012.59 333.462L1011.6 333.965V332.172C1011.6 332.172 1009.81 332.452 1007.68 334.581C1005.56 336.711 998.948 343.044 998.948 343.044C998.948 343.044 999.284 340.353 1000.46 335.814C1001.69 331.275 1008.92 327.968 1008.92 327.968L1002.31 327.352L1001.69 325.223L1000.4 327.296L999.62 328.529L992.395 332.172C992.395 332.172 993.011 327.072 994.803 324.942C996.652 322.813 1002.36 320.739 1005.67 321.019C1009.03 321.3 1011.72 324.326 1011.72 324.326C1011.72 324.326 1010.54 320.739 1012.33 313.79C1014.12 306.897 1018.05 300.845 1018.05 300.845C1018.05 300.845 1019.89 309.307 1020.17 314.126C1020.45 318.946 1017.77 324.382 1017.77 324.382C1017.77 324.382 1024.43 318.666 1029.53 319.562C1034.62 320.459 1040.33 325.278 1040.05 326.175C1036.75 324.382 1030.7 326.792 1030.7 326.792L1030.42 323.149L1029.53 327.688C1025.89 326.792 1020.17 329.482 1020.17 329.482C1027.67 331.291 1028.91 338.297 1028.73 342.503C1030.41 342.086 1032.17 341.669 1034.01 341.251C1044.49 338.867 1052.95 336.402 1060.12 333.924C1062.28 320.755 1067.27 311.82 1071.39 306.394L1070.41 306.897V305.104C1070.41 305.104 1068.62 305.384 1066.49 307.514C1064.36 309.643 1057.75 315.976 1057.75 315.976C1057.75 315.976 1058.09 313.286 1059.26 308.746C1060.5 304.207 1067.72 300.901 1067.72 300.901L1061.11 300.284L1060.5 298.155L1059.21 300.228L1058.42 301.461L1051.2 305.104C1051.2 305.104 1051.81 300.004 1053.61 297.874C1055.46 295.745 1061.17 293.671 1064.47 293.952C1067.83 294.232 1070.52 297.258 1070.52 297.258C1070.52 297.258 1069.34 293.671 1071.14 286.722C1072.93 279.829 1076.85 273.777 1076.85 273.777C1076.85 273.777 1078.7 282.239 1078.98 287.059C1079.26 291.878 1076.57 297.314 1076.57 297.314C1076.57 297.314 1083.23 291.598 1088.33 292.494C1093.43 293.391 1099.14 298.211 1098.86 299.107C1095.55 297.314 1089.51 299.724 1089.51 299.724L1089.23 296.081L1088.33 300.62C1084.69 299.724 1078.98 302.414 1078.98 302.414C1090.12 305.104 1087.43 319.282 1086.82 318.666C1086.54 317.489 1081.11 312.95 1081.11 312.95L1082.28 308.41C1082.28 308.41 1079.59 312.333 1079.59 311.436ZM1025.89 343.222C1024.26 341.658 1022.3 340.017 1022.3 340.017L1023.48 335.478C1023.48 335.478 1020.79 339.401 1020.79 338.504C1020.34 336.368 1016.44 334.019 1014.85 333.143C1012.43 337.906 1011.02 343.091 1010.22 348.031C1014.53 346.447 1019.68 344.838 1025.89 343.222Z" fill="url(#paint0_linear_5_654)"/>
<defs>
<linearGradient id="paint0_linear_5_654" x1="842.069" y1="273.777" x2="842.069" y2="455.961" gradientUnits="userSpaceOnUse">
<stop stop-color="#AEBE95"/>
<stop offset="1" stop-color="#68BBDD" stop-opacity="0"/>
</linearGradient>
</defs>
</svg>
